<mxfile host="app.diagrams.net" modified="2022-05-16T07:10:46.962Z" agent="5.0 (iPad; CPU OS 15_4 like Mac OS X) AppleWebKit/605.1.15 (KHTML, like Gecko) CriOS/101.0.4951.58 Mobile/15E148 Safari/604.1" etag="q2S4yyL8vLpb7s2TSoNt" version="18.0.5" type="github">
  <diagram name="Page-1" id="16e2658f-23c8-b752-8be9-c03fbebb8bbe">
    <mxGraphModel dx="718" dy="554" grid="1" gridSize="10" guides="1" tooltips="1" connect="1" arrows="1" fold="1" page="1" pageScale="1" pageWidth="1100" pageHeight="850" background="none" math="0" shadow="0">
      <root>
        <mxCell id="0" />
        <mxCell id="1" parent="0" />
        <mxCell id="s9WMSgV7T8hNrurttaHs-11" value="" style="endArrow=none;html=1;strokeWidth=1;rounded=0;entryX=0.5;entryY=1;entryDx=0;entryDy=0;" edge="1" parent="1" target="s9WMSgV7T8hNrurttaHs-10">
          <mxGeometry width="100" relative="1" as="geometry">
            <mxPoint x="380" y="320" as="sourcePoint" />
            <mxPoint x="530" y="310" as="targetPoint" />
          </mxGeometry>
        </mxCell>
        <mxCell id="s9WMSgV7T8hNrurttaHs-1" value="" style="pointerEvents=1;verticalLabelPosition=bottom;shadow=0;dashed=0;align=center;html=1;verticalAlign=top;shape=mxgraph.electrical.signal_sources.source;aspect=fixed;points=[[0.5,0,0],[1,0.5,0],[0.5,1,0],[0,0.5,0]];elSignalType=ideal;direction=south;" vertex="1" parent="1">
          <mxGeometry x="250" y="210" width="60" height="60" as="geometry" />
        </mxCell>
        <mxCell id="s9WMSgV7T8hNrurttaHs-2" value="" style="endArrow=none;html=1;strokeWidth=1;rounded=0;entryX=0;entryY=0.5;entryDx=0;entryDy=0;entryPerimeter=0;" edge="1" parent="1" target="s9WMSgV7T8hNrurttaHs-1">
          <mxGeometry width="100" relative="1" as="geometry">
            <mxPoint x="280" y="160" as="sourcePoint" />
            <mxPoint x="470" y="280" as="targetPoint" />
          </mxGeometry>
        </mxCell>
        <mxCell id="s9WMSgV7T8hNrurttaHs-5" value="" style="endArrow=none;html=1;strokeWidth=1;rounded=0;" edge="1" parent="1">
          <mxGeometry width="100" relative="1" as="geometry">
            <mxPoint x="280" y="160" as="sourcePoint" />
            <mxPoint x="480" y="160" as="targetPoint" />
          </mxGeometry>
        </mxCell>
        <mxCell id="s9WMSgV7T8hNrurttaHs-7" value="" style="endArrow=none;html=1;strokeWidth=1;rounded=0;exitX=1;exitY=0.5;exitDx=0;exitDy=0;exitPerimeter=0;" edge="1" parent="1" source="s9WMSgV7T8hNrurttaHs-1">
          <mxGeometry width="100" relative="1" as="geometry">
            <mxPoint x="370" y="280" as="sourcePoint" />
            <mxPoint x="280" y="320" as="targetPoint" />
          </mxGeometry>
        </mxCell>
        <mxCell id="s9WMSgV7T8hNrurttaHs-8" value="" style="endArrow=none;html=1;strokeWidth=1;rounded=0;" edge="1" parent="1">
          <mxGeometry width="100" relative="1" as="geometry">
            <mxPoint x="280" y="320" as="sourcePoint" />
            <mxPoint x="480" y="320" as="targetPoint" />
          </mxGeometry>
        </mxCell>
        <mxCell id="s9WMSgV7T8hNrurttaHs-10" value="任意&lt;br&gt;支路" style="rounded=0;whiteSpace=wrap;html=1;" vertex="1" parent="1">
          <mxGeometry x="360" y="210" width="40" height="60" as="geometry" />
        </mxCell>
        <mxCell id="s9WMSgV7T8hNrurttaHs-12" value="" style="endArrow=none;html=1;strokeWidth=1;rounded=0;entryX=0.5;entryY=0;entryDx=0;entryDy=0;" edge="1" parent="1" target="s9WMSgV7T8hNrurttaHs-10">
          <mxGeometry width="100" relative="1" as="geometry">
            <mxPoint x="380" y="160" as="sourcePoint" />
            <mxPoint x="530" y="310" as="targetPoint" />
          </mxGeometry>
        </mxCell>
        <mxCell id="s9WMSgV7T8hNrurttaHs-13" value="" style="endArrow=none;html=1;strokeWidth=1;rounded=0;entryX=0.5;entryY=1;entryDx=0;entryDy=0;" edge="1" parent="1" target="s9WMSgV7T8hNrurttaHs-19">
          <mxGeometry width="100" relative="1" as="geometry">
            <mxPoint x="380" y="320" as="sourcePoint" />
            <mxPoint x="530" y="310" as="targetPoint" />
          </mxGeometry>
        </mxCell>
        <mxCell id="s9WMSgV7T8hNrurttaHs-16" value="" style="endArrow=none;html=1;strokeWidth=1;rounded=0;" edge="1" parent="1">
          <mxGeometry width="100" relative="1" as="geometry">
            <mxPoint x="280" y="160" as="sourcePoint" />
            <mxPoint x="480" y="160" as="targetPoint" />
          </mxGeometry>
        </mxCell>
        <mxCell id="s9WMSgV7T8hNrurttaHs-18" value="" style="endArrow=none;html=1;strokeWidth=1;rounded=0;" edge="1" parent="1">
          <mxGeometry width="100" relative="1" as="geometry">
            <mxPoint x="280" y="320" as="sourcePoint" />
            <mxPoint x="480" y="320" as="targetPoint" />
          </mxGeometry>
        </mxCell>
        <mxCell id="s9WMSgV7T8hNrurttaHs-19" value="任意&lt;br&gt;支路" style="rounded=0;whiteSpace=wrap;html=1;" vertex="1" parent="1">
          <mxGeometry x="360" y="210" width="40" height="60" as="geometry" />
        </mxCell>
        <mxCell id="s9WMSgV7T8hNrurttaHs-20" value="" style="endArrow=none;html=1;strokeWidth=1;rounded=0;entryX=0.5;entryY=0;entryDx=0;entryDy=0;" edge="1" parent="1" target="s9WMSgV7T8hNrurttaHs-19">
          <mxGeometry width="100" relative="1" as="geometry">
            <mxPoint x="380" y="160" as="sourcePoint" />
            <mxPoint x="530" y="310" as="targetPoint" />
          </mxGeometry>
        </mxCell>
        <mxCell id="s9WMSgV7T8hNrurttaHs-22" value="" style="pointerEvents=1;verticalLabelPosition=bottom;shadow=0;dashed=0;align=center;html=1;verticalAlign=top;shape=mxgraph.electrical.signal_sources.source;aspect=fixed;points=[[0.5,0,0],[1,0.5,0],[0.5,1,0],[0,0.5,0]];elSignalType=ideal;direction=south;" vertex="1" parent="1">
          <mxGeometry x="570" y="209.47" width="60" height="60" as="geometry" />
        </mxCell>
        <mxCell id="s9WMSgV7T8hNrurttaHs-23" value="" style="endArrow=none;html=1;strokeWidth=1;rounded=0;entryX=0;entryY=0.5;entryDx=0;entryDy=0;entryPerimeter=0;" edge="1" parent="1" target="s9WMSgV7T8hNrurttaHs-22">
          <mxGeometry width="100" relative="1" as="geometry">
            <mxPoint x="600" y="159.47" as="sourcePoint" />
            <mxPoint x="790" y="279.47" as="targetPoint" />
          </mxGeometry>
        </mxCell>
        <mxCell id="s9WMSgV7T8hNrurttaHs-24" value="" style="endArrow=none;html=1;strokeWidth=1;rounded=0;" edge="1" parent="1">
          <mxGeometry width="100" relative="1" as="geometry">
            <mxPoint x="600" y="159.47" as="sourcePoint" />
            <mxPoint x="760" y="160" as="targetPoint" />
          </mxGeometry>
        </mxCell>
        <mxCell id="s9WMSgV7T8hNrurttaHs-25" value="" style="endArrow=none;html=1;strokeWidth=1;rounded=0;exitX=1;exitY=0.5;exitDx=0;exitDy=0;exitPerimeter=0;" edge="1" parent="1" source="s9WMSgV7T8hNrurttaHs-22">
          <mxGeometry width="100" relative="1" as="geometry">
            <mxPoint x="690" y="279.47" as="sourcePoint" />
            <mxPoint x="600" y="319.47" as="targetPoint" />
          </mxGeometry>
        </mxCell>
        <mxCell id="s9WMSgV7T8hNrurttaHs-26" value="" style="endArrow=none;html=1;strokeWidth=1;rounded=0;" edge="1" parent="1">
          <mxGeometry width="100" relative="1" as="geometry">
            <mxPoint x="600" y="319.47" as="sourcePoint" />
            <mxPoint x="760" y="319" as="targetPoint" />
          </mxGeometry>
        </mxCell>
        <mxCell id="s9WMSgV7T8hNrurttaHs-30" value="" style="pointerEvents=1;verticalLabelPosition=bottom;shadow=0;dashed=0;align=center;html=1;verticalAlign=top;shape=mxgraph.electrical.signal_sources.source;aspect=fixed;points=[[0.5,0,0],[1,0.5,0],[0.5,1,0],[0,0.5,0]];elSignalType=ideal;direction=west;" vertex="1" parent="1">
          <mxGeometry x="250" y="390" width="60" height="60" as="geometry" />
        </mxCell>
        <mxCell id="s9WMSgV7T8hNrurttaHs-31" value="" style="endArrow=none;html=1;strokeWidth=1;rounded=0;entryX=0.5;entryY=1;entryDx=0;entryDy=0;entryPerimeter=0;" edge="1" parent="1" target="s9WMSgV7T8hNrurttaHs-30">
          <mxGeometry width="100" relative="1" as="geometry">
            <mxPoint x="280" y="360" as="sourcePoint" />
            <mxPoint x="470" y="480" as="targetPoint" />
          </mxGeometry>
        </mxCell>
        <mxCell id="s9WMSgV7T8hNrurttaHs-32" value="" style="endArrow=none;html=1;strokeWidth=1;rounded=0;entryX=0;entryY=0.5;entryDx=0;entryDy=0;entryPerimeter=0;" edge="1" parent="1" target="s9WMSgV7T8hNrurttaHs-35">
          <mxGeometry width="100" relative="1" as="geometry">
            <mxPoint x="280" y="359.47" as="sourcePoint" />
            <mxPoint x="480" y="359" as="targetPoint" />
          </mxGeometry>
        </mxCell>
        <mxCell id="s9WMSgV7T8hNrurttaHs-33" value="" style="endArrow=none;html=1;strokeWidth=1;rounded=0;exitX=0.5;exitY=0;exitDx=0;exitDy=0;exitPerimeter=0;" edge="1" parent="1" source="s9WMSgV7T8hNrurttaHs-30">
          <mxGeometry width="100" relative="1" as="geometry">
            <mxPoint x="370" y="480" as="sourcePoint" />
            <mxPoint x="280" y="480" as="targetPoint" />
          </mxGeometry>
        </mxCell>
        <mxCell id="s9WMSgV7T8hNrurttaHs-34" value="" style="endArrow=none;html=1;strokeWidth=1;rounded=0;" edge="1" parent="1">
          <mxGeometry width="100" relative="1" as="geometry">
            <mxPoint x="280" y="480" as="sourcePoint" />
            <mxPoint x="480" y="480" as="targetPoint" />
          </mxGeometry>
        </mxCell>
        <mxCell id="s9WMSgV7T8hNrurttaHs-39" value="" style="endArrow=none;html=1;strokeWidth=1;rounded=0;startArrow=none;" edge="1" parent="1" source="s9WMSgV7T8hNrurttaHs-35">
          <mxGeometry width="100" relative="1" as="geometry">
            <mxPoint x="350" y="359.47" as="sourcePoint" />
            <mxPoint x="480" y="360" as="targetPoint" />
          </mxGeometry>
        </mxCell>
        <mxCell id="s9WMSgV7T8hNrurttaHs-40" value="" style="verticalLabelPosition=bottom;shadow=0;dashed=0;align=center;html=1;verticalAlign=top;shape=mxgraph.electrical.transmission.straightBus;direction=north;" vertex="1" parent="1">
          <mxGeometry x="500" y="227.5" width="40" height="25" as="geometry" />
        </mxCell>
        <mxCell id="s9WMSgV7T8hNrurttaHs-41" value="" style="verticalLabelPosition=bottom;shadow=0;dashed=0;align=center;html=1;verticalAlign=top;shape=mxgraph.electrical.transmission.straightBus;direction=north;" vertex="1" parent="1">
          <mxGeometry x="500" y="407.5" width="40" height="25" as="geometry" />
        </mxCell>
        <mxCell id="s9WMSgV7T8hNrurttaHs-35" value="任意&lt;br&gt;支路" style="rounded=0;whiteSpace=wrap;html=1;" vertex="1" parent="1">
          <mxGeometry x="330" y="330" width="40" height="60" as="geometry" />
        </mxCell>
        <mxCell id="s9WMSgV7T8hNrurttaHs-43" value="" style="pointerEvents=1;verticalLabelPosition=bottom;shadow=0;dashed=0;align=center;html=1;verticalAlign=top;shape=mxgraph.electrical.signal_sources.source;aspect=fixed;points=[[0.5,0,0],[1,0.5,0],[0.5,1,0],[0,0.5,0]];elSignalType=ideal;direction=west;" vertex="1" parent="1">
          <mxGeometry x="570" y="390" width="60" height="60" as="geometry" />
        </mxCell>
        <mxCell id="s9WMSgV7T8hNrurttaHs-44" value="" style="endArrow=none;html=1;strokeWidth=1;rounded=0;" edge="1" parent="1">
          <mxGeometry width="100" relative="1" as="geometry">
            <mxPoint x="600" y="359" as="sourcePoint" />
            <mxPoint x="760" y="359" as="targetPoint" />
          </mxGeometry>
        </mxCell>
        <mxCell id="s9WMSgV7T8hNrurttaHs-45" value="" style="endArrow=none;html=1;strokeWidth=1;rounded=0;" edge="1" parent="1">
          <mxGeometry width="100" relative="1" as="geometry">
            <mxPoint x="600" y="480" as="sourcePoint" />
            <mxPoint x="760" y="480" as="targetPoint" />
          </mxGeometry>
        </mxCell>
        <mxCell id="s9WMSgV7T8hNrurttaHs-46" value="" style="endArrow=none;html=1;strokeWidth=1;rounded=0;entryX=0.5;entryY=1;entryDx=0;entryDy=0;entryPerimeter=0;" edge="1" parent="1" target="s9WMSgV7T8hNrurttaHs-43">
          <mxGeometry width="100" relative="1" as="geometry">
            <mxPoint x="600" y="360" as="sourcePoint" />
            <mxPoint x="630" y="340" as="targetPoint" />
          </mxGeometry>
        </mxCell>
        <mxCell id="s9WMSgV7T8hNrurttaHs-47" value="" style="endArrow=none;html=1;strokeWidth=1;rounded=0;exitX=0.5;exitY=0;exitDx=0;exitDy=0;exitPerimeter=0;" edge="1" parent="1" source="s9WMSgV7T8hNrurttaHs-43">
          <mxGeometry width="100" relative="1" as="geometry">
            <mxPoint x="530" y="340" as="sourcePoint" />
            <mxPoint x="600" y="480" as="targetPoint" />
          </mxGeometry>
        </mxCell>
      </root>
    </mxGraphModel>
  </diagram>
</mxfile>
